# xmcd
#
# Track frame offsets:
#	180
#	21061
#	43490
#	59927
#	79792
#	101658
#	113843
#	133429
#	143996
#	159691
#	175384
#	189868
#	211144
#	225409
#
# Disc length: 3161 seconds
#
# Revision: 1
# Processed by: cddbd v1.4PL0 Copyright (c) Steve Scherf et al.
# Submitted via: EasyCDDAExtractor 5.1.0
#
DISCID=cd0c570e
DTITLE=compilation disc - Memorie Di Napoli
DYEAR=1900
DGENRE=Country
TTITLE0=O Solo Mio
TTITLE1=Caruso
TTITLE2=Acquarello Napoletano
TTITLE3=Dicitencello Vuie
TTITLE4=Malafemmena
TTITLE5=O Paese Do Solo
TTITLE6=J Te Vurria Vasa
TTITLE7=Totonno O Luongo
TTITLE8=Tu Vuo Fa Lamericano
TTITLE9=E Quattr Ciucce
TTITLE10=Maruzzella
TTITLE11=Piscatore E Pusilleco
TTITLE12=Mille Vase
TTITLE13=Voglio Subito Spusa
EXTD=
EXTT0=
EXTT1=
EXTT2=
EXTT3=
EXTT4=
EXTT5=
EXTT6=
EXTT7=
EXTT8=
EXTT9=
EXTT10=
EXTT11=
EXTT12=
EXTT13=
PLAYORDER=
